<svg version="1.1" id="Layer_1" xmlns="http://www.w3.org/2000/svg" xmlns:xlink="http://www.w3.org/1999/xlink" x="0px" y="0px"
	 width="100%" viewBox="0 0 136 164" enable-background="new 0 0 136 164" xml:space="preserve">
<path fill="#010001" opacity="1.000000" stroke="none" 
	d="
M84.000000,165.000000 
	C56.000000,165.000000 28.500000,165.000000 1.000000,165.000000 
	C1.000000,110.333336 1.000000,55.666668 1.000000,1.000000 
	C46.333332,1.000000 91.666664,1.000000 137.000000,1.000000 
	C137.000000,55.666668 137.000000,110.333336 137.000000,165.000000 
	C119.500000,165.000000 102.000000,165.000000 84.000000,165.000000 
M70.051353,156.847015 
	C79.389175,157.408615 84.981613,154.046310 87.812569,145.742462 
	C95.430840,123.396286 102.979828,101.025948 110.398270,78.612900 
	C111.257095,76.018204 111.693794,73.017456 111.335548,70.337379 
	C110.352936,62.986324 104.399857,57.723755 97.139862,57.146675 
	C90.394806,56.610531 83.861183,60.862488 81.451027,67.899086 
	C73.693169,90.548653 66.024452,113.229546 58.479279,135.950806 
	C55.281509,145.580444 59.315693,153.036346 70.051353,156.847015 
M67.797150,61.427486 
	C71.268730,50.836517 74.818039,40.270203 78.187996,29.646996 
	C81.031158,20.684387 76.913193,12.265574 68.544151,9.507659 
	C60.215317,6.762994 51.808666,11.108048 48.836136,20.010876 
	C41.987328,40.523277 35.233528,61.067966 28.561514,81.638588 
	C25.535940,90.966797 29.593889,99.340050 38.214039,102.157967 
	C46.731556,104.942329 54.883034,100.415199 58.003185,91.085487 
	C61.221687,81.461708 64.364944,71.812752 67.797150,61.427486 
z"/>
<path fill="#552E8B" opacity="1.000000" stroke="none" 
	d="
M69.649689,156.756546 
	C59.315693,153.036346 55.281509,145.580444 58.479279,135.950806 
	C66.024452,113.229546 73.693169,90.548653 81.451027,67.899086 
	C83.861183,60.862488 90.394806,56.610531 97.139862,57.146675 
	C104.399857,57.723755 110.352936,62.986324 111.335548,70.337379 
	C111.693794,73.017456 111.257095,76.018204 110.398270,78.612900 
	C102.979828,101.025948 95.430840,123.396286 87.812569,145.742462 
	C84.981613,154.046310 79.389175,157.408615 69.649689,156.756546 
z"/>
<path fill="#CF147C" opacity="1.000000" stroke="none" 
	d="
M67.669136,61.801147 
	C64.364944,71.812752 61.221687,81.461708 58.003185,91.085487 
	C54.883034,100.415199 46.731556,104.942329 38.214039,102.157967 
	C29.593889,99.340050 25.535940,90.966797 28.561514,81.638588 
	C35.233528,61.067966 41.987328,40.523277 48.836136,20.010876 
	C51.808666,11.108048 60.215317,6.762994 68.544151,9.507659 
	C76.913193,12.265574 81.031158,20.684387 78.187996,29.646996 
	C74.818039,40.270203 71.268730,50.836517 67.669136,61.801147 
z"/>
</svg>